#!OML:ASF H:\Dans Jumps\Project 1\Capture day 1\Session 1\subject.ASF
:FULLY-SPECIFIED
:DEGREES
280
root 0.0856018 22.9502 -1.58191 11.0973 2.38287 -0.233386
lowerback 5.74617 -0.425711 -3.37854
upperback 4.83874 -0.709571 1.78469
thorax 1.84011 -0.474402 3.76817
lowerneck -12.0344 0.135643 -2.70369
upperneck 25.228 0.41842 1.5082
head 9.9832 0.109394 1.04026
rclavicle -7.95139e-016 2.18663e-015
rhumerus -33.9845 -7.95952 -76.7761
rradius 29.0338
rwrist 37.6194
rhand -15.912 -25.724
rfingers 7.12502
rthumb 10.285 -55.4525
lclavicle -7.95139e-016 2.18663e-015
lhumerus -31.7673 4.96247 69.2097
lradius 14.2071
lwrist 7.05731
lhand -20.6287 -5.11129
lfingers 7.12502
lthumb 5.73287 24.7912
rfemur -31.5178 -9.05112 22.2324
rtibia 32.1028
rfoot 16.6449 -1.62208
rtoes 12.9644
lfemur -29.8003 8.3982 -18.6268
ltibia 19.5669
lfoot 18.533 -3.99009
ltoes -0.32617
281
root 0.0873828 22.848 -1.38791 11.1672 2.45744 -0.235717
lowerback 5.85708 -0.434417 -3.26468
upperback 4.8309 -0.719603 1.78704
thorax 1.76904 -0.474743 3.70797
lowerneck -12.2291 0.125632 -2.7338
upperneck 25.4522 0.407979 1.54239
head 10.1019 0.104497 1.05913
rclavicle -7.55382e-015 2.98177e-015
rhumerus -34.2506 -7.65557 -76.8017
rradius 29.0521
rwrist 37.5101
rhand -15.8985 -25.8445
rfingers 7.12502
rthumb 10.298 -55.5723
lclavicle -7.55382e-015 2.98177e-015
lhumerus -31.9663 4.82992 68.916
lradius 14.0875
lwrist 7.26226
lhand -20.8888 -5.32283
lfingers 7.12502
lthumb 5.48168 24.5863
rfemur -31.6523 -8.63194 22.0555
rtibia 29.7536
rfoot 16.2426 -2.03156
rtoes 12.9076
lfemur -30.5446 8.67397 -18.8859
ltibia 19.0961
lfoot 18.0253 -3.83256
ltoes -0.0747165
282
root 0.0890698 22.7338 -1.19596 11.2265 2.56947 -0.277122
lowerback 5.988 -0.448442 -3.10153
upperback 4.82208 -0.734864 1.79727
thorax 1.68552 -0.476337 3.62862
lowerneck -12.3969 0.106761 -2.75854
upperneck 25.6443 0.379687 1.58949
head 10.2046 0.0936353 1.07915
rclavicle 1.98785e-015 1.41137e-014
rhumerus -34.5208 -7.38597 -76.8362
rradius 29.1027
rwrist 37.3619
rhand -15.9068 -25.9793
rfingers 7.12502
rthumb 10.2901 -55.7075
lclavicle 1.98785e-015 1.41137e-014
lhumerus -32.1596 4.70957 68.6074
lradius 13.9344
lwrist 7.31227
lhand -21.0738 -5.53873
lfingers 7.12502
lthumb 5.30307 24.3749
rfemur -31.8281 -8.28473 21.9219
rtibia 27.5648
rfoot 15.7517 -2.61297
rtoes 12.7972
lfemur -31.2736 8.86878 -19.0724
ltibia 18.6998
lfoot 17.3621 -3.748
ltoes 0.128155
283
root 0.0902239 22.6074 -1.00654 11.2734 2.69811 -0.34977
lowerback 6.13557 -0.462519 -2.9119
upperback 4.82421 -0.748903 1.81618
thorax 1.60368 -0.477104 3.54351
lowerneck -12.5387 0.0846281 -2.78088
upperneck 25.7792 0.343538 1.64396
head 10.2819 0.0806954 1.09979
rclavicle 9.34288e-015 -5.1684e-015
rhumerus -34.7773 -7.15735 -76.8819
rradius 29.198
rwrist 37.1611
rhand -15.9365 -26.1177
rfingers 7.12502
rthumb 10.2614 -55.8474
lclavicle 9.34288e-015 -5.1684e-015
lhumerus -32.336 4.58599 68.3069
lradius 13.777
lwrist 7.27191
lhand -21.1729 -5.73137
lfingers 7.12502
lthumb 5.20744 24.1846
rfemur -32.0562 -7.99535 21.8254
rtibia 25.5586
rfoot 15.2698 -3.34893
rtoes 12.7154
lfemur -31.9686 8.98276 -19.1835
ltibia 18.3388
lfoot 16.636 -3.7296
ltoes 0.23903
284
root 0.0906701 22.4686 -0.819558 11.297 2.8361 -0.437891
lowerback 6.30756 -0.474753 -2.71427
upperback 4.84132 -0.759928 1.8383
thorax 1.52357 -0.476593 3.45739
lowerneck -12.6457 0.0617194 -2.79908
upperneck 25.8527 0.302714 1.70452
head 10.3304 0.0671562 1.12058
rclavicle -1.98785e-016 -1.70955e-014
rhumerus -35.0276 -6.99042 -76.9335
rradius 29.3453
rwrist 36.905
rhand -15.9873 -26.239
rfingers 7.12502
rthumb 10.2125 -55.9712
lclavicle -1.98785e-016 -1.70955e-014
lhumerus -32.5082 4.43545 68.031
lradius 13.6617
lwrist 7.23732
lhand -21.2025 -5.80591
lfingers 7.12502
lthumb 5.17883 24.1108
rfemur -32.3315 -7.75727 21.7469
rtibia 23.7565
rfoot 14.8667 -4.18205
rtoes 12.7354
lfemur -32.6063 9.02996 -19.2335
ltibia 17.9799
lfoot 15.9647 -3.77811
ltoes 0.209663
285
root 0.0903746 22.3174 -0.634859 11.2875 2.96617 -0.530717
lowerback 6.51278 -0.481866 -2.52208
upperback 4.87744 -0.764204 1.85891
thorax 1.44439 -0.47322 3.37288
lowerneck -12.7483 0.0425498 -2.79051
upperneck 25.8874 0.26574 1.74608
head 10.3639 0.0560713 1.13012
rclavicle -6.95746e-015 1.21259e-014
rhumerus -35.2693 -6.88761 -76.9923
rradius 29.5498
rwrist 36.5902
rhand -16.0555 -26.3459
rfingers 7.12502
rthumb 10.1466 -56.0813
lclavicle -6.95746e-015 1.21259e-014
lhumerus -32.6801 4.24362 67.7955
lradius 13.6097
lwrist 7.31499
lhand -21.1727 -5.78427
lfingers 7.12502
lthumb 5.20764 24.1317
rfemur -32.6428 -7.54394 21.6661
rtibia 22.1678
rfoot 14.5955 -5.0679
rtoes 12.9108
lfemur -33.1751 9.03596 -19.2373
ltibia 17.6069
lfoot 15.4552 -3.88711
ltoes 0.0620698
